<svg width="38" height="38" viewBox="0 0 38 38" fill="none" xmlns="http://www.w3.org/2000/svg">
<circle cx="19" cy="19" r="19" fill="#BBF6FF"/>
<path d="M17.869 25.301H20.131V18.5153H17.869V25.301ZM19 16.2534C19.3204 16.2534 19.589 16.145 19.8058 15.9282C20.0226 15.7115 20.131 15.4429 20.131 15.1224C20.131 14.802 20.0226 14.5334 19.8058 14.3166C19.589 14.0999 19.3204 13.9915 19 13.9915C18.6796 13.9915 18.411 14.0999 18.1942 14.3166C17.9774 14.5334 17.869 14.802 17.869 15.1224C17.869 15.4429 17.9774 15.7115 18.1942 15.9282C18.411 16.145 18.6796 16.2534 19 16.2534ZM19 30.9558C17.4355 30.9558 15.9653 30.6589 14.5893 30.0652C13.2133 29.4714 12.0164 28.6656 10.9985 27.6477C9.98065 26.6299 9.17485 25.433 8.5811 24.057C7.98735 22.681 7.69048 21.2107 7.69048 19.6463C7.69048 18.0818 7.98735 16.6115 8.5811 15.2355C9.17485 13.8595 9.98065 12.6626 10.9985 11.6448C12.0164 10.6269 13.2133 9.82111 14.5893 9.22736C15.9653 8.63361 17.4355 8.33673 19 8.33673C20.5645 8.33673 22.0347 8.63361 23.4107 9.22736C24.7867 9.82111 25.9836 10.6269 27.0015 11.6448C28.0193 12.6626 28.8251 13.8595 29.4189 15.2355C30.0126 16.6115 30.3095 18.0818 30.3095 19.6463C30.3095 21.2107 30.0126 22.681 29.4189 24.057C28.8251 25.433 28.0193 26.6299 27.0015 27.6477C25.9836 28.6656 24.7867 29.4714 23.4107 30.0652C22.0347 30.6589 20.5645 30.9558 19 30.9558ZM19 28.6939C21.5258 28.6939 23.6652 27.8174 25.4182 26.0644C27.1711 24.3114 28.0476 22.172 28.0476 19.6463C28.0476 17.1205 27.1711 14.9811 25.4182 13.2281C23.6652 11.4751 21.5258 10.5986 19 10.5986C16.4742 10.5986 14.3348 11.4751 12.5818 13.2281C10.8289 14.9811 9.95238 17.1205 9.95238 19.6463C9.95238 22.172 10.8289 24.3114 12.5818 26.0644C14.3348 27.8174 16.4742 28.6939 19 28.6939Z" fill="#055663"/>
</svg>
