<svg width="38" height="38" viewBox="0 0 38 38" fill="none" xmlns="http://www.w3.org/2000/svg">
<circle cx="19" cy="19" r="19" fill="#BBF6FF"/>
<path d="M13.3454 30.3095C12.7234 30.3095 12.1909 30.088 11.7479 29.6451C11.305 29.2021 11.0835 28.6696 11.0835 28.0476C11.0835 27.4256 11.305 26.8931 11.7479 26.4501C12.1909 26.0072 12.7234 25.7857 13.3454 25.7857C13.9674 25.7857 14.4999 26.0072 14.9429 26.4501C15.3858 26.8931 15.6073 27.4256 15.6073 28.0476C15.6073 28.6696 15.3858 29.2021 14.9429 29.6451C14.4999 30.088 13.9674 30.3095 13.3454 30.3095ZM24.6549 30.3095C24.0329 30.3095 23.5004 30.088 23.0575 29.6451C22.6145 29.2021 22.393 28.6696 22.393 28.0476C22.393 27.4256 22.6145 26.8931 23.0575 26.4501C23.5004 26.0072 24.0329 25.7857 24.6549 25.7857C25.277 25.7857 25.8094 26.0072 26.2524 26.4501C26.6954 26.8931 26.9168 27.4256 26.9168 28.0476C26.9168 28.6696 26.6954 29.2021 26.2524 29.6451C25.8094 30.088 25.277 30.3095 24.6549 30.3095ZM12.3841 12.2143L15.0984 17.869H23.0151L26.1252 12.2143H12.3841ZM11.3097 9.95237H27.9912C28.4248 9.95237 28.7546 10.1456 28.9808 10.532C29.207 10.9184 29.2164 11.3095 29.0091 11.7053L24.9942 18.9434C24.7869 19.3204 24.5089 19.6126 24.1601 19.8199C23.8114 20.0273 23.4297 20.1309 23.0151 20.1309H14.5895L13.3454 22.3928H26.9168V24.6547H13.3454C12.4972 24.6547 11.8563 24.2825 11.4228 23.5379C10.9893 22.7934 10.9704 22.0536 11.3662 21.3184L12.893 18.5476L8.8216 9.95237H6.55969V7.69046H10.2353L11.3097 9.95237Z" fill="#055663"/>
</svg>
