<svg width="38" height="38" viewBox="0 0 38 38" fill="none" xmlns="http://www.w3.org/2000/svg">
<circle cx="19" cy="19" r="19" fill="#BBF6FF"/>
<path d="M27.5952 29.8248L20.4702 22.6998C19.9047 23.1522 19.2544 23.5103 18.5193 23.7742C17.7842 24.0381 17.002 24.1701 16.1726 24.1701C14.118 24.1701 12.3792 23.4585 10.9561 22.0354C9.53297 20.6123 8.82141 18.8734 8.82141 16.8189C8.82141 14.7643 9.53297 13.0255 10.9561 11.6024C12.3792 10.1792 14.118 9.46768 16.1726 9.46768C18.2272 9.46768 19.966 10.1792 21.3891 11.6024C22.8122 13.0255 23.5238 14.7643 23.5238 16.8189C23.5238 17.6482 23.3918 18.4305 23.128 19.1656C22.8641 19.9007 22.5059 20.551 22.0536 21.1165L29.1786 28.2415L27.5952 29.8248ZM16.1726 21.9082C17.5863 21.9082 18.7879 21.4134 19.7775 20.4238C20.7671 19.4342 21.2619 18.2326 21.2619 16.8189C21.2619 15.4052 20.7671 14.2035 19.7775 13.214C18.7879 12.2244 17.5863 11.7296 16.1726 11.7296C14.7589 11.7296 13.5573 12.2244 12.5677 13.214C11.5781 14.2035 11.0833 15.4052 11.0833 16.8189C11.0833 18.2326 11.5781 19.4342 12.5677 20.4238C13.5573 21.4134 14.7589 21.9082 16.1726 21.9082Z" fill="#055663"/>
</svg>
