<svg width="38" height="38" viewBox="0 0 38 38" fill="none" xmlns="http://www.w3.org/2000/svg">
<circle cx="19" cy="19" r="19" fill="#BBF6FF"/>
<path d="M19 23.5238C20.4137 23.5238 21.6154 23.029 22.605 22.0394C23.5945 21.0498 24.0893 19.8482 24.0893 18.4345C24.0893 17.0208 23.5945 15.8192 22.605 14.8296C21.6154 13.84 20.4137 13.3452 19 13.3452C17.5864 13.3452 16.3847 13.84 15.3951 14.8296C14.4056 15.8192 13.9108 17.0208 13.9108 18.4345C13.9108 19.8482 14.4056 21.0498 15.3951 22.0394C16.3847 23.029 17.5864 23.5238 19 23.5238ZM19 21.4881C18.1518 21.4881 17.4308 21.1912 16.8371 20.5975C16.2433 20.0037 15.9465 19.2827 15.9465 18.4345C15.9465 17.5863 16.2433 16.8653 16.8371 16.2716C17.4308 15.6778 18.1518 15.3809 19 15.3809C19.8483 15.3809 20.5692 15.6778 21.163 16.2716C21.7567 16.8653 22.0536 17.5863 22.0536 18.4345C22.0536 19.2827 21.7567 20.0037 21.163 20.5975C20.5692 21.1912 19.8483 21.4881 19 21.4881ZM19 26.9167C16.2481 26.9167 13.7411 26.1486 11.4792 24.6123C9.21731 23.0761 7.57743 21.0169 6.55957 18.4345C7.57743 15.8522 9.21731 13.7929 11.4792 12.2567C13.7411 10.7205 16.2481 9.95238 19 9.95238C21.752 9.95238 24.259 10.7205 26.5209 12.2567C28.7828 13.7929 30.4227 15.8522 31.4405 18.4345C30.4227 21.0169 28.7828 23.0761 26.5209 24.6123C24.259 26.1486 21.752 26.9167 19 26.9167ZM19 24.6548C21.13 24.6548 23.0856 24.094 24.8669 22.9725C26.6481 21.8509 28.01 20.3383 28.9524 18.4345C28.01 16.5307 26.6481 15.0181 24.8669 13.8966C23.0856 12.775 21.13 12.2143 19 12.2143C16.8701 12.2143 14.9145 12.775 13.1332 13.8966C11.352 15.0181 9.99013 16.5307 9.04767 18.4345C9.99013 20.3383 11.352 21.8509 13.1332 22.9725C14.9145 24.094 16.8701 24.6548 19 24.6548Z" fill="#055663"/>
</svg>
